ply
format ascii 1.0
comment VCGLIB generated
element vertex 225
property float x
property float y
property float z
element face 392
property list uchar int vertex_indices
end_header
0 907.2058 0 
64.80042 907.2058 0 
129.6008 907.2058 0 
194.4012 907.2058 0 
259.2017 907.2058 0 
324.0021 907.2058 0 
388.8025 907.2058 0 
453.6029 907.2058 0 
518.4033 907.2058 0 
583.2037 907.2058 0 
648.0042 907.2058 0 
712.8046 907.2058 0 
777.605 907.2058 0 
842.4054 907.2058 0 
907.2058 907.2058 0 
0 842.4054 0 
64.80042 842.4054 0 
129.6008 842.4054 0 
194.4012 842.4054 0.2060685 
259.2017 842.4054 2.179384 
324.0021 842.4054 2.291844 
388.8025 842.4054 0.4797268 
453.6029 842.4054 0.001861417 
518.4033 842.4054 0 
583.2037 842.4054 0 
648.0042 842.4054 0 
712.8046 842.4054 0 
777.605 842.4054 0 
842.4054 842.4054 0 
907.2058 842.4054 0 
0 777.605 0 
64.80042 777.605 0.02186838 
129.6008 777.605 6.226818 
194.4012 777.605 33.37988 
259.2017 777.605 51.15476 
324.0021 777.605 46.42611 
388.8025 777.605 31.98757 
453.6029 777.605 12.53163 
518.4033 777.605 1.668224 
583.2037 777.605 0.00644714 
648.0042 777.605 0 
712.8046 777.605 0 
777.605 777.605 0 
842.4054 777.605 0 
907.2058 777.605 0 
0 712.8046 0.008389778 
64.80042 712.8046 12.8295 
129.6008 712.8046 69.68563 
194.4012 712.8046 94.67322 
259.2017 712.8046 88.53701 
324.0021 712.8046 78.08382 
388.8025 712.8046 67.27894 
453.6029 712.8046 53.78525 
518.4033 712.8046 31.83102 
583.2037 712.8046 8.849942 
648.0042 712.8046 0.8110183 
712.8046 712.8046 3.019909e-06 
777.605 712.8046 0 
842.4054 712.8046 0 
907.2058 712.8046 0 
0 648.0042 6.863671 
64.80042 648.0042 78.99363 
129.6008 648.0042 122.8775 
194.4012 648.0042 120.0384 
259.2017 648.0042 110.4901 
324.0021 648.0042 98.49507 
388.8025 648.0042 84.14899 
453.6029 648.0042 68.74536 
518.4033 648.0042 53.92351 
583.2037 648.0042 38.19673 
648.0042 648.0042 17.59551 
712.8046 648.0042 3.20856 
777.605 648.0042 0.08205964 
842.4054 648.0042 0 
907.2058 648.0042 0 
0 583.2037 34.27535 
64.80042 583.2037 138.0196 
129.6008 583.2037 150.9609 
194.4012 583.2037 146.125 
259.2017 583.2037 133.2258 
324.0021 583.2037 117.0389 
388.8025 583.2037 99.12451 
453.6029 583.2037 78.87009 
518.4033 583.2037 59.33888 
583.2037 583.2037 43.85756 
648.0042 583.2037 32.37412 
712.8046 583.2037 19.56655 
777.605 583.2037 3.125351 
842.4054 583.2037 0.04268651 
907.2058 583.2037 4.461777e-05 
0 518.4033 53.07232 
64.80042 518.4033 169.8628 
129.6008 518.4033 180.393 
194.4012 518.4033 172.4285 
259.2017 518.4033 154.9686 
324.0021 518.4033 134.2561 
388.8025 518.4033 111.107 
453.6029 518.4033 86.02004 
518.4033 518.4033 62.14012 
583.2037 518.4033 43.73471 
648.0042 518.4033 31.68345 
712.8046 518.4033 21.00196 
777.605 518.4033 5.525335 
842.4054 518.4033 0.3774067 
907.2058 518.4033 0.0004340851 
0 453.6029 50.54837 
64.80042 453.6029 195.1356 
129.6008 453.6029 209.63 
194.4012 453.6029 197.6953 
259.2017 453.6029 175.244 
324.0021 453.6029 149.1451 
388.8025 453.6029 120.5636 
453.6029 453.6029 89.96844 
518.4033 453.6029 62.24942 
583.2037 453.6029 41.24945 
648.0042 453.6029 28.59782 
712.8046 453.6029 18.29773 
777.605 453.6029 4.158778 
842.4054 453.6029 0.07441114 
907.2058 453.6029 1.0674e-07 
0 388.8025 33.21111 
64.80042 388.8025 203.3993 
129.6008 388.8025 236.3985 
194.4012 388.8025 220.5613 
259.2017 388.8025 193.0637 
324.0021 388.8025 161.8089 
388.8025 388.8025 127.3731 
453.6029 388.8025 91.62639 
518.4033 388.8025 60.43335 
583.2037 388.8025 37.11592 
648.0042 388.8025 23.38836 
712.8046 388.8025 13.50128 
777.605 388.8025 1.800214 
842.4054 388.8025 0 
907.2058 388.8025 0 
0 324.0021 6.46639 
64.80042 324.0021 180.3807 
129.6008 324.0021 264.1599 
194.4012 324.0021 242.6727 
259.2017 324.0021 206.831 
324.0021 324.0021 146.9732 
388.8025 324.0021 89.8229 
453.6029 324.0021 64.15466 
518.4033 324.0021 40.27604 
583.2037 324.0021 22.79437 
648.0042 324.0021 10.9459 
712.8046 324.0021 5.04692 
777.605 324.0021 0.1925578 
842.4054 324.0021 0 
907.2058 324.0021 0 
0 259.2017 1.78861 
64.80042 259.2017 164.7803 
129.6008 259.2017 285.3793 
194.4012 259.2017 227.1301 
259.2017 259.2017 119.3781 
324.0021 259.2017 26.85442 
388.8025 259.2017 3.780085 
453.6029 259.2017 2.630747 
518.4033 259.2017 1.491176 
583.2037 259.2017 0.9392577 
648.0042 259.2017 0.1625961 
712.8046 259.2017 0.02278944 
777.605 259.2017 0 
842.4054 259.2017 0 
907.2058 259.2017 0 
0 194.4012 0.09129111 
64.80042 194.4012 47.4589 
129.6008 194.4012 152.3744 
194.4012 194.4012 65.76909 
259.2017 194.4012 2.72633 
324.0021 194.4012 0.003635472 
388.8025 194.4012 0 
453.6029 194.4012 0 
518.4033 194.4012 0 
583.2037 194.4012 0 
648.0042 194.4012 0 
712.8046 194.4012 0 
777.605 194.4012 0 
842.4054 194.4012 0 
907.2058 194.4012 0 
0 129.6008 0 
64.80042 129.6008 0.008146309 
129.6008 129.6008 1.355547 
194.4012 129.6008 0.6283066 
259.2017 129.6008 0 
324.0021 129.6008 0 
388.8025 129.6008 0 
453.6029 129.6008 0 
518.4033 129.6008 0 
583.2037 129.6008 0 
648.0042 129.6008 0 
712.8046 129.6008 0 
777.605 129.6008 0 
842.4054 129.6008 0 
907.2058 129.6008 0 
0 64.80042 0 
64.80042 64.80042 0 
129.6008 64.80042 0 
194.4012 64.80042 0 
259.2017 64.80042 0 
324.0021 64.80042 0 
388.8025 64.80042 0 
453.6029 64.80042 0 
518.4033 64.80042 0 
583.2037 64.80042 0 
648.0042 64.80042 0 
712.8046 64.80042 0 
777.605 64.80042 0 
842.4054 64.80042 0 
907.2058 64.80042 0 
0 0 0 
64.80042 0 0 
129.6008 0 0 
194.4012 0 0 
259.2017 0 0 
324.0021 0 0 
388.8025 0 0 
453.6029 0 0 
518.4033 0 0 
583.2037 0 0 
648.0042 0 0 
712.8046 0 0 
777.605 0 0 
842.4054 0 0 
907.2058 0 0 
3 1 0 15 
3 16 1 15 
3 2 1 16 
3 17 2 16 
3 3 2 17 
3 18 3 17 
3 4 3 18 
3 19 4 18 
3 5 4 19 
3 20 5 19 
3 6 5 20 
3 21 6 20 
3 7 6 21 
3 22 7 21 
3 8 7 22 
3 23 8 22 
3 9 8 23 
3 24 9 23 
3 10 9 24 
3 25 10 24 
3 11 10 25 
3 26 11 25 
3 12 11 26 
3 27 12 26 
3 13 12 27 
3 28 13 27 
3 14 13 28 
3 29 14 28 
3 16 15 30 
3 31 16 30 
3 17 16 31 
3 32 17 31 
3 18 17 32 
3 33 18 32 
3 19 18 33 
3 34 19 33 
3 20 19 34 
3 35 20 34 
3 21 20 35 
3 36 21 35 
3 22 21 36 
3 37 22 36 
3 23 22 37 
3 38 23 37 
3 24 23 38 
3 39 24 38 
3 25 24 39 
3 40 25 39 
3 26 25 40 
3 41 26 40 
3 27 26 41 
3 42 27 41 
3 28 27 42 
3 43 28 42 
3 29 28 43 
3 44 29 43 
3 31 30 45 
3 46 31 45 
3 32 31 46 
3 47 32 46 
3 33 32 47 
3 48 33 47 
3 34 33 48 
3 49 34 48 
3 35 34 49 
3 50 35 49 
3 36 35 50 
3 51 36 50 
3 37 36 51 
3 52 37 51 
3 38 37 52 
3 53 38 52 
3 39 38 53 
3 54 39 53 
3 40 39 54 
3 55 40 54 
3 41 40 55 
3 56 41 55 
3 42 41 56 
3 57 42 56 
3 43 42 57 
3 58 43 57 
3 44 43 58 
3 59 44 58 
3 46 45 60 
3 61 46 60 
3 47 46 61 
3 62 47 61 
3 48 47 62 
3 63 48 62 
3 49 48 63 
3 64 49 63 
3 50 49 64 
3 65 50 64 
3 51 50 65 
3 66 51 65 
3 52 51 66 
3 67 52 66 
3 53 52 67 
3 68 53 67 
3 54 53 68 
3 69 54 68 
3 55 54 69 
3 70 55 69 
3 56 55 70 
3 71 56 70 
3 57 56 71 
3 72 57 71 
3 58 57 72 
3 73 58 72 
3 59 58 73 
3 74 59 73 
3 61 60 75 
3 76 61 75 
3 62 61 76 
3 77 62 76 
3 63 62 77 
3 78 63 77 
3 64 63 78 
3 79 64 78 
3 65 64 79 
3 80 65 79 
3 66 65 80 
3 81 66 80 
3 67 66 81 
3 82 67 81 
3 68 67 82 
3 83 68 82 
3 69 68 83 
3 84 69 83 
3 70 69 84 
3 85 70 84 
3 71 70 85 
3 86 71 85 
3 72 71 86 
3 87 72 86 
3 73 72 87 
3 88 73 87 
3 74 73 88 
3 89 74 88 
3 76 75 90 
3 91 76 90 
3 77 76 91 
3 92 77 91 
3 78 77 92 
3 93 78 92 
3 79 78 93 
3 94 79 93 
3 80 79 94 
3 95 80 94 
3 81 80 95 
3 96 81 95 
3 82 81 96 
3 97 82 96 
3 83 82 97 
3 98 83 97 
3 84 83 98 
3 99 84 98 
3 85 84 99 
3 100 85 99 
3 86 85 100 
3 101 86 100 
3 87 86 101 
3 102 87 101 
3 88 87 102 
3 103 88 102 
3 89 88 103 
3 104 89 103 
3 91 90 105 
3 106 91 105 
3 92 91 106 
3 107 92 106 
3 93 92 107 
3 108 93 107 
3 94 93 108 
3 109 94 108 
3 95 94 109 
3 110 95 109 
3 96 95 110 
3 111 96 110 
3 97 96 111 
3 112 97 111 
3 98 97 112 
3 113 98 112 
3 99 98 113 
3 114 99 113 
3 100 99 114 
3 115 100 114 
3 101 100 115 
3 116 101 115 
3 102 101 116 
3 117 102 116 
3 103 102 117 
3 118 103 117 
3 104 103 118 
3 119 104 118 
3 106 105 120 
3 121 106 120 
3 107 106 121 
3 122 107 121 
3 108 107 122 
3 123 108 122 
3 109 108 123 
3 124 109 123 
3 110 109 124 
3 125 110 124 
3 111 110 125 
3 126 111 125 
3 112 111 126 
3 127 112 126 
3 113 112 127 
3 128 113 127 
3 114 113 128 
3 129 114 128 
3 115 114 129 
3 130 115 129 
3 116 115 130 
3 131 116 130 
3 117 116 131 
3 132 117 131 
3 118 117 132 
3 133 118 132 
3 119 118 133 
3 134 119 133 
3 121 120 135 
3 136 121 135 
3 122 121 136 
3 137 122 136 
3 123 122 137 
3 138 123 137 
3 124 123 138 
3 139 124 138 
3 125 124 139 
3 140 125 139 
3 126 125 140 
3 141 126 140 
3 127 126 141 
3 142 127 141 
3 128 127 142 
3 143 128 142 
3 129 128 143 
3 144 129 143 
3 130 129 144 
3 145 130 144 
3 131 130 145 
3 146 131 145 
3 132 131 146 
3 147 132 146 
3 133 132 147 
3 148 133 147 
3 134 133 148 
3 149 134 148 
3 136 135 150 
3 151 136 150 
3 137 136 151 
3 152 137 151 
3 138 137 152 
3 153 138 152 
3 139 138 153 
3 154 139 153 
3 140 139 154 
3 155 140 154 
3 141 140 155 
3 156 141 155 
3 142 141 156 
3 157 142 156 
3 143 142 157 
3 158 143 157 
3 144 143 158 
3 159 144 158 
3 145 144 159 
3 160 145 159 
3 146 145 160 
3 161 146 160 
3 147 146 161 
3 162 147 161 
3 148 147 162 
3 163 148 162 
3 149 148 163 
3 164 149 163 
3 151 150 165 
3 166 151 165 
3 152 151 166 
3 167 152 166 
3 153 152 167 
3 168 153 167 
3 154 153 168 
3 169 154 168 
3 155 154 169 
3 170 155 169 
3 156 155 170 
3 171 156 170 
3 157 156 171 
3 172 157 171 
3 158 157 172 
3 173 158 172 
3 159 158 173 
3 174 159 173 
3 160 159 174 
3 175 160 174 
3 161 160 175 
3 176 161 175 
3 162 161 176 
3 177 162 176 
3 163 162 177 
3 178 163 177 
3 164 163 178 
3 179 164 178 
3 166 165 180 
3 181 166 180 
3 167 166 181 
3 182 167 181 
3 168 167 182 
3 183 168 182 
3 169 168 183 
3 184 169 183 
3 170 169 184 
3 185 170 184 
3 171 170 185 
3 186 171 185 
3 172 171 186 
3 187 172 186 
3 173 172 187 
3 188 173 187 
3 174 173 188 
3 189 174 188 
3 175 174 189 
3 190 175 189 
3 176 175 190 
3 191 176 190 
3 177 176 191 
3 192 177 191 
3 178 177 192 
3 193 178 192 
3 179 178 193 
3 194 179 193 
3 181 180 195 
3 196 181 195 
3 182 181 196 
3 197 182 196 
3 183 182 197 
3 198 183 197 
3 184 183 198 
3 199 184 198 
3 185 184 199 
3 200 185 199 
3 186 185 200 
3 201 186 200 
3 187 186 201 
3 202 187 201 
3 188 187 202 
3 203 188 202 
3 189 188 203 
3 204 189 203 
3 190 189 204 
3 205 190 204 
3 191 190 205 
3 206 191 205 
3 192 191 206 
3 207 192 206 
3 193 192 207 
3 208 193 207 
3 194 193 208 
3 209 194 208 
3 196 195 210 
3 211 196 210 
3 197 196 211 
3 212 197 211 
3 198 197 212 
3 213 198 212 
3 199 198 213 
3 214 199 213 
3 200 199 214 
3 215 200 214 
3 201 200 215 
3 216 201 215 
3 202 201 216 
3 217 202 216 
3 203 202 217 
3 218 203 217 
3 204 203 218 
3 219 204 218 
3 205 204 219 
3 220 205 219 
3 206 205 220 
3 221 206 220 
3 207 206 221 
3 222 207 221 
3 208 207 222 
3 223 208 222 
3 209 208 223 
3 224 209 223 
